<svg width="64" height="39" viewBox="0 0 64 39" fill="none" xmlns="http://www.w3.org/2000/svg">
<g filter="url(#filter0_d_2_318)">
<mask id="path-1-inside-1_2_318" fill="white">
<path fill-rule="evenodd" clip-rule="evenodd" d="M4 23C4 25.2091 5.79086 27 8 27H25.875L32 34L38.125 27H56C58.2091 27 60 25.2091 60 23V7C60 4.79086 58.2091 3 56 3H8C5.79086 3 4 4.79086 4 7V23Z"/>
</mask>
<path fill-rule="evenodd" clip-rule="evenodd" d="M4 23C4 25.2091 5.79086 27 8 27H25.875L32 34L38.125 27H56C58.2091 27 60 25.2091 60 23V7C60 4.79086 58.2091 3 56 3H8C5.79086 3 4 4.79086 4 7V23Z" fill="#28A3B3"/>
<path d="M25.875 27L26.6276 26.3415L26.3288 26H25.875V27ZM32 34L31.2474 34.6585L32 35.5186L32.7526 34.6585L32 34ZM38.125 27V26H37.6712L37.3724 26.3415L38.125 27ZM8 26C6.34315 26 5 24.6569 5 23H3C3 25.7614 5.23858 28 8 28V26ZM25.875 26H8V28H25.875V26ZM32.7526 33.3415L26.6276 26.3415L25.1224 27.6585L31.2474 34.6585L32.7526 33.3415ZM37.3724 26.3415L31.2474 33.3415L32.7526 34.6585L38.8776 27.6585L37.3724 26.3415ZM56 26H38.125V28H56V26ZM59 23C59 24.6569 57.6569 26 56 26V28C58.7614 28 61 25.7614 61 23H59ZM59 7V23H61V7H59ZM56 4C57.6569 4 59 5.34315 59 7H61C61 4.23858 58.7614 2 56 2V4ZM8 4H56V2H8V4ZM5 7C5 5.34315 6.34315 4 8 4V2C5.23858 2 3 4.23858 3 7H5ZM5 23V7H3V23H5Z" fill="white" mask="url(#path-1-inside-1_2_318)"/>
</g>
<defs>
<filter id="filter0_d_2_318" x="0" y="0" width="64" height="39" filterUnits="userSpaceOnUse" color-interpolation-filters="sRGB">
<feFlood flood-opacity="0" result="BackgroundImageFix"/>
<feColorMatrix in="SourceAlpha" type="matrix" values="0 0 0 0 0 0 0 0 0 0 0 0 0 0 0 0 0 0 127 0" result="hardAlpha"/>
<feOffset dy="1"/>
<feGaussianBlur stdDeviation="2"/>
<feComposite in2="hardAlpha" operator="out"/>
<feColorMatrix type="matrix" values="0 0 0 0 0 0 0 0 0 0 0 0 0 0 0 0 0 0 0.25 0"/>
<feBlend mode="normal" in2="BackgroundImageFix" result="effect1_dropShadow_2_318"/>
<feBlend mode="normal" in="SourceGraphic" in2="effect1_dropShadow_2_318" result="shape"/>
</filter>
</defs>
</svg>
